<?xml version="1.0" encoding="utf-8"?>
<!-- Generator: Adobe Illustrator 19.2.1, SVG Export Plug-In . SVG Version: 6.00 Build 0)  -->
<svg version="1.1" baseProfile="basic" id="Layer_1"
	 xmlns="http://www.w3.org/2000/svg" xmlns:xlink="http://www.w3.org/1999/xlink" x="0px" y="0px" width="16px" height="22px"
	 viewBox="0 0 16 22" xml:space="preserve">
<style type="text/css">
	.st0{fill:#113B6F;}
	.st1{fill:#FFFFFF;}
	.st2{fill:#CC0000;}
</style>
<g id="HJjeNJ_1_">
	<g>
		<path class="st0" d="M0.4,8.4C0.5,5.7,1.6,3.5,3.8,2c1-0.7,2.1-1.1,3.3-1.3c1.9-0.2,3.6,0.1,5.2,1.1c1.9,1.2,3.1,3,3.5,5.2
			c0.4,2.2-0.1,4.2-1.5,6c-0.6,0.8-1.1,1.6-1.7,2.4c-1.3,1.9-2.6,3.7-3.9,5.6c0,0,0,0,0,0c-0.3,0.4-0.8,0.4-1.1,0
			c-0.6-0.9-1.2-1.7-1.8-2.6c-0.8-1.2-1.7-2.4-2.5-3.6c-0.6-0.8-1.2-1.7-1.7-2.5c-0.6-0.9-1-2-1.1-3.1C0.5,9,0.4,8.7,0.4,8.4z
			 M8.1,1.6c-3.6,0-6.5,2.9-6.5,6.5c0,3.6,2.9,6.5,6.5,6.5c3.6,0,6.5-2.9,6.5-6.5C14.6,4.5,11.7,1.6,8.1,1.6z"/>
	</g>
</g>
<circle class="st1" cx="8.1" cy="8.2" r="6.6"/>
<g>
	<circle class="st2" cx="9" cy="4.7" r="1"/>
	<path class="st2" d="M12.7,11.3l-2-1.8c-0.1-0.1-0.4-0.1-0.6,0l0,0c-0.2,0.1-0.4,0.1-0.6,0L8.3,8.7C8.1,8.5,8,8.3,8,8.1l0-0.3
		c0-0.2,0.1-0.5,0.2-0.7l0.3-0.5c0.1-0.2,0.1-0.5,0-0.6L7.8,4.9C7.7,4.7,7.5,4.6,7.3,4.6L5.4,4.8C5.2,4.8,5,5,5,5.2l0,0.6
		C4.9,6,4.7,6,4.5,6L4.4,6.2c0,0,0.2,0.1,0.3,0.2c0.1,0.1,0.3,0.2,0.3,0.3c0,0.1-0.1,0.2-0.2,0.4C4.6,7.2,4.5,7.4,4.5,7.6l0.1,1.8
		c0,0.2,0,0.5-0.1,0.7l-0.4,1.5C4.5,12,5,11.8,5,11.8s0,0,0.2-0.5l0.4-1.1C5.7,10,5.8,9.7,5.8,9.5l0-0.9c0-0.2,0.1-0.2,0.2,0
		l0.3,0.6c0.1,0.2,0.1,0.5,0,0.6c0,0-0.7,1.5-0.7,1.8s0.9,0.1,0.9,0.1l0,0l0.8-2c0.1-0.2,0-0.5,0-0.6L7.1,8.7C7,8.5,6.9,8.3,7,8.3
		c0-0.1,0.1-0.1,0.1,0c0,0,0.1,0.1,0.2,0.2c0.1,0.1,0.2,0.2,0.4,0.2c0.1,0,0.4,0.2,0.5,0.3l1.1,0.8c0.2,0.1,0.2,0.3,0,0.4l-1.7,1.3
		c-0.2,0.1-0.1,0.2,0.1,0.2l4.9-0.1C12.8,11.6,12.8,11.5,12.7,11.3z M6.2,6L6,6c-0.1,0.1-0.3,0-0.3-0.2c0-0.1,0.1-0.2,0.3-0.2
		C6.2,5.6,6.3,5.9,6.2,6z M7.2,7.3L7.2,7.3C7.1,7.6,6.9,7.7,6.8,7.6C6.7,7.6,6.7,7.4,6.9,7.3L7,7.2C7.1,7.1,7.2,7.2,7.2,7.3z"/>
</g>
</svg>
