<?xml version="1.0" encoding="utf-8"?>
<!-- Generator: Adobe Illustrator 22.0.1, SVG Export Plug-In . SVG Version: 6.00 Build 0)  -->
<svg version="1.1" baseProfile="basic" id="Layer_1"
	 xmlns="http://www.w3.org/2000/svg" xmlns:xlink="http://www.w3.org/1999/xlink" x="0px" y="0px" width="16px" height="22px"
	 viewBox="0 0 16 22" xml:space="preserve">
<style type="text/css">
	.st0{fill:#E91800;}
	.st1{fill:#FFFFFF;}
</style>
<g id="HJjeNJ_1_">
	<g>
		<path class="st0" d="M0.4,8.4C0.5,5.7,1.6,3.5,3.8,2c1-0.7,2.1-1.1,3.3-1.3c1.9-0.2,3.6,0.1,5.2,1.1c1.9,1.2,3.1,3,3.5,5.2
			c0.4,2.2-0.1,4.2-1.5,6c-0.6,0.8-1.1,1.6-1.7,2.4c-1.3,1.9-2.6,3.7-3.9,5.6c0,0,0,0,0,0c-0.3,0.4-0.8,0.4-1.1,0
			c-0.6-0.9-1.2-1.7-1.8-2.6c-0.8-1.2-1.7-2.4-2.5-3.6c-0.6-0.8-1.2-1.7-1.7-2.5c-0.6-0.9-1-2-1.1-3.1C0.5,9,0.4,8.7,0.4,8.4z
			 M8.1,1.6c-3.6,0-6.5,2.9-6.5,6.5c0,3.6,2.9,6.5,6.5,6.5c3.6,0,6.5-2.9,6.5-6.5C14.6,4.5,11.7,1.6,8.1,1.6z"/>
	</g>
</g>
<circle class="st1" cx="8.1" cy="8.2" r="6.6"/>
<rect x="7.2" y="3.1" class="st0" width="2" height="6.2"/>
<rect x="7.2" y="10.5" class="st0" width="2" height="1.8"/>
</svg>
