<?xml version="1.0" encoding="utf-8"?>
<!-- Generator: Adobe Illustrator 19.2.1, SVG Export Plug-In . SVG Version: 6.00 Build 0)  -->
<svg version="1.1" baseProfile="basic" id="Layer_1"
	 xmlns="http://www.w3.org/2000/svg" xmlns:xlink="http://www.w3.org/1999/xlink" x="0px" y="0px" width="16px" height="22px"
	 viewBox="0 0 16 22" xml:space="preserve">
<style type="text/css">
	.st0{fill:#00B4F1;}
	.st1{fill:#FFFFFF;}
	.st2{fill:#113C70;}
	.st3{fill:#CC0000;}
	.st4{fill:#787878;}
	.st5{fill:#FF7314;}
</style>
<g id="HJjeNJ_1_">
	<g>
		<path class="st0" d="M0.4,8.4C0.5,5.7,1.6,3.5,3.8,2c1-0.7,2.1-1.1,3.3-1.3c1.9-0.2,3.6,0.1,5.2,1.1c1.9,1.2,3.1,3,3.5,5.2
			c0.4,2.2-0.1,4.2-1.5,6c-0.6,0.8-1.1,1.6-1.7,2.4c-1.3,1.9-2.6,3.7-3.9,5.6c0,0,0,0,0,0c-0.3,0.4-0.8,0.4-1.1,0
			c-0.6-0.9-1.2-1.7-1.8-2.6c-0.8-1.2-1.7-2.4-2.5-3.6c-0.6-0.8-1.2-1.7-1.7-2.5c-0.6-0.9-1-2-1.1-3.1C0.5,9,0.4,8.7,0.4,8.4z
			 M8.1,1.6c-3.6,0-6.5,2.9-6.5,6.5c0,3.6,2.9,6.5,6.5,6.5c3.6,0,6.5-2.9,6.5-6.5C14.6,4.5,11.7,1.6,8.1,1.6z"/>
	</g>
</g>
<circle class="st1" cx="8.1" cy="8.2" r="6.6"/>
<g id="EyRBml_1_">
	<g>
		<path class="st0" d="M3.7,10.5c0-1.4,0-2.8,0-4.2c0,0,0,0,0,0c0.1-0.5,0.4-0.7,0.9-0.7c0.3,0,0.7,0,1,0C5.8,5.5,6,5.4,6,5.3
			C6.1,5,6.2,4.7,6.3,4.5c0,0,0-0.1,0.1-0.1c0.1-0.1,0.1-0.1,0.2-0.1c1,0,2.1,0,3.1,0C9.8,4.3,9.9,4.3,10,4.5
			c0.1,0.2,0.2,0.5,0.2,0.7c0.1,0.2,0.2,0.3,0.4,0.3c0.4,0,0.7,0,1.1,0c0.3,0,0.5,0.2,0.7,0.4c0.1,0.1,0.1,0.2,0.1,0.3
			c0,1.4,0,2.8,0,4.2c0,0,0,0,0,0c-0.1,0.3-0.2,0.5-0.4,0.6c-0.1,0.1-0.2,0.1-0.3,0.1c-2.4,0-4.9,0-7.3,0c0,0,0,0,0,0
			c-0.3-0.1-0.5-0.2-0.6-0.4C3.8,10.7,3.8,10.6,3.7,10.5z M8.1,6C6.9,6,5.9,7,5.9,8.2c0,1.2,1,2.2,2.2,2.2c1.2,0,2.2-1,2.2-2.2
			C10.3,7,9.3,6,8.1,6z"/>
		
			<ellipse transform="matrix(1 -3.685827e-003 3.685827e-003 1 -3.010143e-002 2.999965e-002)" class="st0" cx="8.1" cy="8.2" rx="1.3" ry="1.3"/>
	</g>
</g>
<g id="HJjeNJ_2_">
	<g>
		<path class="st2" d="M0.5,8.4C0.5,5.7,1.6,3.5,3.8,2c1-0.7,2.1-1.1,3.3-1.3c1.9-0.2,3.6,0.1,5.2,1.1c1.9,1.2,3.1,2.9,3.5,5.2
			c0.4,2.2-0.1,4.2-1.5,6c-0.6,0.8-1.1,1.6-1.7,2.4c-1.3,1.9-2.6,3.7-3.9,5.6c0,0,0,0,0,0c-0.3,0.4-0.8,0.4-1.1,0
			c-0.6-0.9-1.2-1.7-1.8-2.6c-0.8-1.2-1.6-2.4-2.5-3.6c-0.6-0.8-1.2-1.7-1.7-2.5c-0.6-0.9-1-2-1.1-3.1C0.5,9,0.5,8.7,0.5,8.4z
			 M8.2,1.6c-3.6,0-6.5,2.9-6.5,6.5c0,3.6,2.9,6.5,6.5,6.5c3.6,0,6.5-2.9,6.5-6.5C14.6,4.5,11.7,1.6,8.2,1.6z"/>
	</g>
</g>
<circle class="st3" cx="8.1" cy="8.1" r="6.6"/>
<rect x="3.7" y="6.9" class="st1" width="8.9" height="2.5"/>
<g id="HJjeNJ_3_">
	<g>
		<path class="st4" d="M0.5,8.4C0.5,5.7,1.6,3.6,3.8,2c1-0.7,2.1-1.1,3.3-1.3c1.9-0.2,3.6,0.1,5.2,1.1c1.9,1.2,3.1,2.9,3.5,5.2
			c0.4,2.2-0.1,4.2-1.5,6c-0.6,0.8-1.1,1.6-1.7,2.4c-1.3,1.9-2.6,3.7-3.9,5.6c0,0,0,0,0,0c-0.3,0.4-0.8,0.4-1.1,0
			c-0.6-0.9-1.2-1.7-1.8-2.6c-0.8-1.2-1.6-2.4-2.5-3.6c-0.6-0.8-1.2-1.7-1.7-2.5c-0.6-0.9-1-2-1.1-3.1C0.5,9,0.5,8.7,0.5,8.4z
			 M8.1,1.6c-3.6,0-6.5,2.9-6.5,6.5c0,3.6,2.9,6.5,6.5,6.5c3.6,0,6.5-2.9,6.5-6.5C14.6,4.5,11.7,1.6,8.1,1.6z"/>
	</g>
</g>
<circle class="st1" cx="8.1" cy="8.1" r="6.5"/>
<g id="PpX11l_2_">
	<g>
		<path class="st5" d="M3.5,9.6C3.7,9.5,3.8,9.3,4,9.3C4.5,9,5.1,8.8,5.7,8.5C5.7,8.7,5.6,8.8,5.6,8.9c-0.1,0.3,0,0.5,0.2,0.6
			c0.1,0.1,0.3,0.2,0.5,0.3c1.3,0.5,2.6,0.5,3.9,0c0.1,0,0.2-0.1,0.3-0.1c0.4-0.3,0.5-0.5,0.3-0.9c0-0.1-0.1-0.1-0.1-0.3
			c0.3,0.1,0.7,0.3,1,0.4c0.3,0.1,0.5,0.2,0.8,0.3c0.2,0.1,0.3,0.2,0.5,0.3c0,0.1,0,0.1,0,0.2c-0.2,0.1-0.3,0.3-0.5,0.4
			c-1.1,0.6-2.2,1.2-3.3,1.7c-0.6,0.3-1.3,0.3-1.9,0C6.1,11.3,5,10.8,4,10.2c-0.2-0.1-0.3-0.2-0.5-0.4C3.5,9.7,3.5,9.7,3.5,9.6z"/>
		<path class="st5" d="M9.9,6.4c0.2,0.4,0.3,0.9,0.5,1.3c0.1,0.3,0.1,0.4-0.2,0.6c-0.3,0.3-0.6,0.4-1,0.4C8.4,8.8,7.6,8.8,6.8,8.6
			C6.6,8.5,6.4,8.3,6.1,8.2C6,8.1,6,7.9,6,7.7c0.2-0.4,0.3-0.9,0.5-1.3C7.1,7.2,9.3,7.1,9.9,6.4z"/>
		<path class="st5" d="M8.2,5.5c-0.4,0-0.7-0.1-1-0.2C7,5.2,7,5.1,7,4.9c0.1-0.3,0.2-0.6,0.3-1c0.2-0.4,0.5-0.6,0.9-0.6
			c0.3,0,0.6,0.2,0.7,0.5c0.1,0.3,0.2,0.7,0.3,1c0.1,0.2,0,0.3-0.1,0.4C8.9,5.5,8.6,5.5,8.2,5.5z"/>
	</g>
</g>
</svg>
