<?xml version="1.0" encoding="utf-8"?>
<!-- Generator: Adobe Illustrator 23.0.3, SVG Export Plug-In . SVG Version: 6.00 Build 0)  -->
<svg version="1.1" baseProfile="basic" id="Layer_1"
	 xmlns="http://www.w3.org/2000/svg" xmlns:xlink="http://www.w3.org/1999/xlink" x="0px" y="0px" width="16px" height="22px" viewBox="0 0 16 22"
	 xml:space="preserve">
<style type="text/css">
	.st0{fill:#787878;}
	.st1{fill:#CC0000;}
	.st2{fill:#FFFFFF;}
</style>
<path class="st0" d="M7.3,21c-5.8-8.5-6.9-9.4-6.9-12.6c0-4.3,3.4-7.8,7.7-7.8s7.7,3.5,7.7,7.8c0,3.1-1.1,4-6.9,12.6
	C8.5,21.6,7.7,21.6,7.3,21L7.3,21z"/>
<circle class="st1" cx="8.1" cy="8.4" r="6.7"/>
<g id="PpX11l_2_">
	<g>
		<path class="st2" d="M3.4,9.8c0.2-0.1,0.3-0.3,0.5-0.3C4.5,9.2,5.1,9,5.7,8.8C5.6,8.9,5.6,9,5.5,9.1c-0.1,0.3,0,0.5,0.2,0.6
			C5.8,9.9,6,10,6.2,10.1c1.3,0.5,2.6,0.5,3.9,0c0.1,0,0.2-0.1,0.3-0.1c0.4-0.3,0.5-0.5,0.3-0.9c0-0.1-0.1-0.1-0.1-0.3
			c0.3,0.1,0.7,0.3,1,0.4c0.3,0.1,0.5,0.2,0.8,0.3c0.2,0.1,0.3,0.2,0.5,0.3c0,0.1,0,0.1,0,0.2c-0.2,0.1-0.3,0.3-0.5,0.4
			c-1.1,0.6-2.2,1.2-3.3,1.7c-0.6,0.3-1.3,0.3-1.9,0C6.1,11.6,5,11,3.9,10.4c-0.2-0.1-0.3-0.2-0.5-0.4C3.4,10,3.4,9.9,3.4,9.8z"/>
		<path class="st2" d="M9.8,6.6c0.2,0.4,0.3,0.9,0.5,1.3c0.1,0.3,0.1,0.4-0.2,0.6c-0.3,0.3-0.6,0.4-1,0.4C8.3,9.1,7.5,9.1,6.8,8.8
			C6.5,8.7,6.3,8.6,6.1,8.4C5.9,8.3,5.9,8.1,6,8c0.2-0.4,0.3-0.9,0.5-1.3C7.1,7.4,9.2,7.4,9.8,6.6z"/>
		<path class="st2" d="M8.1,5.8c-0.4,0-0.7-0.1-1-0.2C7,5.4,6.9,5.3,7,5.1c0.1-0.3,0.2-0.6,0.3-1c0.2-0.4,0.5-0.6,0.9-0.6
			c0.3,0,0.6,0.2,0.7,0.5c0.1,0.3,0.2,0.7,0.3,1c0.1,0.2,0,0.3-0.1,0.4C8.8,5.7,8.5,5.7,8.1,5.8z"/>
	</g>
</g>
</svg>
