<?xml version="1.0" encoding="utf-8"?>
<!-- Generator: Adobe Illustrator 24.0.2, SVG Export Plug-In . SVG Version: 6.00 Build 0)  -->
<svg version="1.1" baseProfile="basic" id="Layer_1"
	 xmlns="http://www.w3.org/2000/svg" xmlns:xlink="http://www.w3.org/1999/xlink" x="0px" y="0px" width="16px" height="22px" viewBox="0 0 16 22"
	 xml:space="preserve">
<style type="text/css">
	.st0{fill:#FF5B00;}
	.st1{fill:#FFFFFF;}
</style>
<path class="st0" d="M7.3,21c-5.8-8.5-6.9-9.4-6.9-12.6c0-4.3,3.4-7.8,7.7-7.8s7.7,3.5,7.7,7.8c0,3.1-1.1,4-6.9,12.6
	C8.5,21.6,7.7,21.6,7.3,21L7.3,21z"/>
<circle class="st1" cx="8.1" cy="8.4" r="6.7"/>
<g>
	<path class="st0" d="M9.9,11.6l-0.1,0.6c-0.4,0.2-0.7,0.3-1,0.4c-0.2,0.1-0.5,0.1-0.9,0.1c-0.5,0-0.9-0.1-1.2-0.4
		c-0.3-0.2-0.4-0.6-0.4-0.9c0-0.1,0-0.3,0-0.4c0-0.2,0.1-0.3,0.1-0.5L7,8.6c0-0.2,0.1-0.3,0.1-0.5c0-0.2,0-0.3,0-0.4
		c0-0.2,0-0.4-0.1-0.5C6.9,7.1,6.8,7,6.5,7C6.3,7,6.2,7,6.1,7.1c-0.1,0-0.3,0.1-0.4,0.1l0.1-0.6c0.3-0.1,0.7-0.3,1-0.4
		c0.3-0.1,0.6-0.1,0.9-0.1c0.5,0,0.9,0.1,1.2,0.4c0.3,0.2,0.4,0.6,0.4,0.9c0,0.1,0,0.2,0,0.4c0,0.2-0.1,0.4-0.1,0.6l-0.5,1.8
		c0,0.1-0.1,0.3-0.1,0.5c0,0.2-0.1,0.3-0.1,0.4c0,0.2,0.1,0.4,0.2,0.5c0.1,0.1,0.3,0.1,0.6,0.1c0.1,0,0.3,0,0.4-0.1
		C9.8,11.7,9.9,11.7,9.9,11.6L9.9,11.6z M10.1,4c0,0.3-0.1,0.6-0.4,0.8C9.5,5,9.2,5.1,8.8,5.1C8.5,5.1,8.2,5,8,4.8
		C7.7,4.5,7.6,4.3,7.6,4c0-0.3,0.1-0.6,0.4-0.8c0.2-0.2,0.5-0.3,0.9-0.3c0.3,0,0.6,0.1,0.9,0.3C10,3.4,10.1,3.6,10.1,4L10.1,4z
		 M10.1,4"/>
</g>
</svg>
