<?xml version="1.0" encoding="utf-8"?>
<!-- Generator: Adobe Illustrator 24.0.2, SVG Export Plug-In . SVG Version: 6.00 Build 0)  -->
<svg version="1.1" baseProfile="basic" id="Layer_1"
	 xmlns="http://www.w3.org/2000/svg" xmlns:xlink="http://www.w3.org/1999/xlink" x="0px" y="0px" width="16px" height="22px" viewBox="0 0 16 22"
	 xml:space="preserve">
<style type="text/css">
	.st0{fill:#11784B;}
	.st1{fill:#FFFFFF;}
	.st2{fill:#252122;}
</style>
<path class="st0" d="M7.3,21c-5.8-8.5-6.9-9.4-6.9-12.6c0-4.3,3.4-7.8,7.7-7.8s7.7,3.5,7.7,7.8c0,3.1-1.1,4-6.9,12.6
	C8.5,21.6,7.7,21.6,7.3,21L7.3,21z"/>
<circle class="st1" cx="8.1" cy="8.4" r="6.7"/>
<g>
	<path class="st2" d="M13.5,8h-2.6l-1-2.8h1.7V4.4H4.7v0.9h1.7L5.3,8H2.8v0.9H5l-1.2,3h1.2l1.2-3h3.9l1.2,3h1.2l-1.2-3h2.2V8z
		 M6.4,8l1-2.8h1.1l1,2.8H6.4z M6.4,8"/>
</g>
</svg>
