<?xml version="1.0" encoding="utf-8"?>
<!-- Generator: Adobe Illustrator 24.0.2, SVG Export Plug-In . SVG Version: 6.00 Build 0)  -->
<svg version="1.1" baseProfile="basic" id="Layer_1"
	 xmlns="http://www.w3.org/2000/svg" xmlns:xlink="http://www.w3.org/1999/xlink" x="0px" y="0px" width="16px" height="22px" viewBox="0 0 16 22"
	 xml:space="preserve">
<style type="text/css">
	.st0{fill:#0A70B9;}
	.st1{fill:#FFFFFF;}
</style>
<path class="st0" d="M7.3,21c-5.8-8.5-6.9-9.4-6.9-12.6c0-4.3,3.4-7.8,7.7-7.8s7.7,3.5,7.7,7.8c0,3.1-1.1,4-6.9,12.6
	C8.5,21.6,7.7,21.6,7.3,21L7.3,21z"/>
<circle class="st0" cx="8.1" cy="8.4" r="6.7"/>
<g>
	<path class="st1" d="M9.2,8.7H8.8C8.7,8.5,8.4,8.4,8.2,8.4S7.7,8.5,7.6,8.7H6.9C6.7,8.5,6.5,8.4,6.3,8.4C6,8.4,5.8,8.5,5.6,8.7H5.4
		c0-0.1,0-0.1-0.1-0.1h-1l-0.1-1c0,0,0-0.1-0.1-0.1h0V5.9c0,0,0-0.1-0.1-0.1H3.9c0,0-0.1,0-0.1,0.1v1.6h0V6.8V6c0,0,0-0.1-0.1-0.1
		L2,6.6C1.9,6.7,1.8,7,1.8,7L1.5,7.7c0,0-0.1,0-0.1,0.1c0,0-0.1,0.3-0.1,0.6s0.1,0.4,0.1,0.4S1.3,8.9,1.3,9s0.1,0.3,0.1,0.3l0.7,0.2
		l0,0c0-0.4,0.4-0.8,0.8-0.8S3.7,9,3.7,9.5h1.7c0,0,0,0,0.1-0.1c0-0.4,0.4-0.7,0.8-0.7S7,9,7.1,9.4c0,0.1,0,0.1,0,0.1h0.2
		c0,0,0,0,0.1-0.1c0-0.4,0.4-0.7,0.8-0.7C8.6,8.7,9,9,9,9.4c0,0.1,0,0.1,0,0.1h0.1c0,0,0.2-0.2,0.2-0.4C9.4,8.9,9.2,8.7,9.2,8.7z
		 M2.9,7.6L2.9,7.6H1.7l0,0L2,6.9l0,0h0.9l0,0V7.6z"/>
	<path class="st1" d="M10.5,9.1c-0.1,0.2-0.1,0.4-0.1,0.4h0.2c0,0,0,0,0-0.1c0-0.4,0.4-0.7,0.8-0.7c0.4,0,0.7,0.3,0.8,0.7
		c0,0.1,0.1,0.1,0.1,0.1h0.2c0,0,0,0,0-0.1c0-0.4,0.4-0.7,0.8-0.7c0.4,0,0.7,0.3,0.8,0.7c0,0.1,0.1,0.1,0.1,0.1h0.2
		C14.4,9,14,8.6,14,8.6c-0.2-0.1-0.4-0.2-0.6-0.2c-0.2,0-0.5,0.1-0.6,0.2H12c-0.2-0.1-0.4-0.2-0.6-0.2c-0.2,0-0.5,0.1-0.6,0.2
		C10.8,8.6,10.5,8.8,10.5,9.1z"/>
	<circle class="st1" cx="2.9" cy="9.5" r="0.5"/>
	<circle class="st1" cx="6.3" cy="9.5" r="0.5"/>
	<circle class="st1" cx="8.2" cy="9.5" r="0.5"/>
	<circle class="st1" cx="11.4" cy="9.5" r="0.5"/>
	<circle class="st1" cx="13.3" cy="9.5" r="0.5"/>
	<rect x="4.5" y="5.7" class="st1" width="10.2" height="2.5"/>
</g>
<g>
	<path class="st1" d="M7,11.5c0.4-0.1,1-0.1,1.8-0.1s1.5,0.2,1.9,0.5s0.6,0.8,0.6,1.4c0,0.6-0.2,1.1-0.5,1.4c-0.5,0.5-1.2,0.7-2,0.7
		c-0.2,0-0.4,0-0.6,0v2.4H7V11.5z M8.1,14.5c0.1,0,0.3,0,0.6,0c0.9,0,1.4-0.4,1.4-1.2c0-0.7-0.5-1.1-1.3-1.1c-0.3,0-0.5,0-0.7,0.1
		V14.5z"/>
</g>
</svg>
