<?xml version="1.0" encoding="utf-8"?>
<!-- Generator: Adobe Illustrator 24.0.2, SVG Export Plug-In . SVG Version: 6.00 Build 0)  -->
<svg version="1.1" id="Layer_1" xmlns="http://www.w3.org/2000/svg" xmlns:xlink="http://www.w3.org/1999/xlink" x="0px" y="0px"
	 viewBox="0 0 16 16" width="16px" height="16px" style="enable-background:new 0 0 16 16;" xml:space="preserve">
<style type="text/css">
	.st0{fill:#FFFFFF;stroke:#478203;stroke-width:0.5;stroke-miterlimit:10;}
	.st1{fill:#478203;}
</style>
<circle class="st0" cx="8" cy="8" r="7.6"/>
<path class="st1" d="M11.4,11.7c-0.1,0-0.2,0-0.3,0c-0.4-0.1-0.6-0.4-0.6-0.9c0-0.2,0-0.4,0-0.7c-1.7,0-3.4,0-5.1,0
	c0,0.2,0,0.4,0,0.7c0,0.4-0.1,0.7-0.6,0.9c-0.1,0-0.2,0-0.3,0C4.1,11.5,4,11.3,4,10.8c0-0.2,0-0.4,0-0.7c-0.3,0-0.5,0-0.8,0
	c0-0.9,0-1.8,0-2.7C3.3,7,3.6,6.7,4,6.5l0.1-0.1c0.2-0.5,0.4-1.1,0.6-1.6s0.5-0.9,1-0.9c1.5,0,3,0,4.4,0c0.5,0.1,0.8,0.4,1,0.9
	c0.2,0.6,0.4,1.1,0.6,1.6c0,0.1,0.1,0.1,0.1,0.1c0.5,0.1,0.7,0.5,0.8,0.9c0,0.9,0,1.8,0,2.7c-0.2,0-0.5,0-0.8,0c0,0.2,0,0.5,0,0.7
	C12,11.3,11.9,11.5,11.4,11.7z M11.1,6.5c-0.2-0.5-0.4-1.1-0.6-1.6c-0.1-0.3-0.2-0.3-0.5-0.3c-1.3,0-2.6,0-4,0
	C5.7,4.6,5.6,4.7,5.5,5C5.3,5.4,5.1,5.8,5,6.3c0,0.1,0,0.1-0.1,0.2C7,6.5,9,6.5,11.1,6.5z M5.4,7.9c0-0.4-0.3-0.7-0.7-0.7
	C4.3,7.2,4,7.5,4,7.9c0,0.4,0.3,0.7,0.7,0.7S5.4,8.3,5.4,7.9z M10.6,7.9c0,0.4,0.3,0.7,0.7,0.7S12,8.3,12,7.9c0-0.4-0.3-0.7-0.6-0.7
	C10.9,7.2,10.6,7.5,10.6,7.9z"/>
</svg>
