<?xml version="1.0" encoding="utf-8"?>
<!-- Generator: Adobe Illustrator 24.0.2, SVG Export Plug-In . SVG Version: 6.00 Build 0)  -->
<svg version="1.1" baseProfile="basic" id="Layer_1"
	 xmlns="http://www.w3.org/2000/svg" xmlns:xlink="http://www.w3.org/1999/xlink" x="0px" y="0px" width="16px" height="22px" viewBox="0 0 16 22"
	 xml:space="preserve">
<style type="text/css">
	.st0{fill:#113B6F;}
	.st1{fill:#FFFFFF;}
	.st2{fill:#0099CC;}
</style>
<path class="st0" d="M7.3,21c-5.8-8.5-6.9-9.4-6.9-12.6c0-4.3,3.4-7.8,7.7-7.8s7.7,3.5,7.7,7.8c0,3.1-1.1,4-6.9,12.6
	C8.5,21.6,7.7,21.6,7.3,21L7.3,21z"/>
<circle class="st1" cx="8.1" cy="8.4" r="6.7"/>
<g>
	<g id="_x35_FxPSL_1_">
		<g>
			<path class="st2" d="M8.4,4C9,4.1,9.6,4.2,10.2,4.4c1.6,0.6,2.7,2.2,2.7,3.8c0,0.1-0.1,0.2-0.1,0.3c-0.1,0-0.2,0-0.3-0.1
				C12.2,8.2,12,8,11.8,7.9c-0.7-0.4-1.4-0.2-1.9,0.4c-0.2,0.3-0.3,0.3-0.5,0c-0.6-0.8-1.8-0.8-2.4,0c-0.2,0.2-0.3,0.2-0.5,0
				C5.8,7.6,4.7,7.5,4,8.2C4,8.3,3.9,8.3,3.9,8.4C3.8,8.4,3.7,8.5,3.6,8.5c-0.1,0-0.1-0.2-0.1-0.2c0-0.7,0.1-1.3,0.4-1.9
				c0.8-1.4,2-2.1,3.6-2.3c0.1,0,0.3,0,0.4,0C7.9,3.7,8,3.5,8.1,3.2c0.1,0,0.1,0,0.2,0"/>
		</g>
	</g>
	<path class="st2" d="M7.8,8.3v3.2c0,0.2-0.1,0.3-0.2,0.5c-0.1,0.1-0.3,0.2-0.5,0.2c-0.2,0-0.3-0.1-0.5-0.2
		c-0.1-0.1-0.2-0.3-0.2-0.5c0-0.1,0-0.2-0.1-0.2c-0.1-0.1-0.2-0.1-0.2-0.1c-0.1,0-0.2,0-0.3,0.1c-0.1,0.1-0.1,0.2-0.1,0.2
		c0,0.4,0.1,0.7,0.4,1c0.3,0.3,0.6,0.4,1,0.4c0.4,0,0.7-0.1,1-0.4c0.3-0.3,0.4-0.6,0.4-1V8.3c-0.1,0-0.2-0.1-0.4-0.1
		C8,8.2,7.9,8.3,7.8,8.3z"/>
</g>
</svg>
