<?xml version="1.0" encoding="utf-8"?>
<!-- Generator: Adobe Illustrator 24.0.2, SVG Export Plug-In . SVG Version: 6.00 Build 0)  -->
<svg version="1.1" baseProfile="basic" id="Layer_1"
	 xmlns="http://www.w3.org/2000/svg" xmlns:xlink="http://www.w3.org/1999/xlink" x="0px" y="0px" width="16px" height="22px" viewBox="0 0 16 22"
	 xml:space="preserve">
<style type="text/css">
	.st0{fill:#113B6F;}
	.st1{fill:#FFFFFF;}
	.st2{fill:#20A6D2;}
</style>
<path class="st0" d="M7.3,21c-5.8-8.5-6.9-9.4-6.9-12.6c0-4.3,3.4-7.8,7.7-7.8s7.7,3.5,7.7,7.8c0,3.1-1.1,4-6.9,12.6
	C8.5,21.6,7.7,21.6,7.3,21L7.3,21z"/>
<circle class="st1" cx="8.1" cy="8.4" r="6.7"/>
<g id="yxOlLC.tif">
	<g>
		<path class="st2" d="M7,13.6C7,13.6,7,13.6,7,13.6c0.7-1,1.3-2.1,1.9-3.1c-0.4,0-0.7,0-1,0c0.3-0.7,0.7-1.3,1-2
			c-0.4,0-0.8,0-1.2,0c-0.1,0-0.1,0-0.1,0.1C7.3,9.4,7,10.3,6.7,11.1c0,0.1,0,0.1-0.1,0.2c0.3,0,0.6,0,0.9,0
			C7.3,12.1,7.1,12.8,7,13.6z"/>
		<path class="st2" d="M13.4,7.6c0,0.2-0.1,0.4-0.1,0.6c-0.3,0.8-1.1,1.4-2,1.4c-0.5,0-1.1,0-1.7,0c-0.2,0-0.4-0.2-0.4-0.4
			c0-0.2,0.2-0.4,0.4-0.4c0.5,0,1,0,1.4,0c0.5,0,0.9-0.2,1.2-0.6c0.6-0.9,0.1-2.1-0.9-2.2c-0.3,0-0.4-0.2-0.4-0.4
			C10.8,4.8,10.2,4.2,9.4,4C8.6,3.9,7.9,4.3,7.5,5C7.4,5.2,7.3,5.3,7,5.3C6.2,5.1,5.4,5.7,5.3,6.5c0,0.3-0.2,0.4-0.5,0.4
			c-0.5-0.1-1,0.3-1.1,0.8C3.6,8.3,4,8.8,4.5,8.9c0.2,0,0.5,0,0.7,0c0.2,0,0.5,0,0.7,0c0.2,0,0.3,0.1,0.4,0.2c0.1,0.2,0,0.3-0.1,0.4
			C6.2,9.6,6.1,9.7,6,9.7c-0.4,0-0.9,0-1.3,0C3.8,9.6,3,9,2.9,8.1c0,0,0-0.1,0-0.1c0-0.1,0-0.2,0-0.3c0,0,0-0.1,0-0.1
			C2.9,7.5,3,7.3,3,7.1c0.3-0.6,0.8-1,1.4-1.1c0.1,0,0.1,0,0.2-0.1c0.1-0.3,0.2-0.5,0.4-0.7c0.5-0.5,1.1-0.8,1.8-0.7
			c0.1,0,0.1,0,0.1-0.1c0.4-0.6,0.9-0.9,1.6-1.1c0.1,0,0.3-0.1,0.4-0.1c0.1,0,0.2,0,0.4,0c0.1,0,0.2,0,0.3,0.1c1.1,0.2,1.8,0.9,2,2
			c0,0.1,0,0.1,0.1,0.1c0.7,0.2,1.2,0.7,1.5,1.4c0.1,0.2,0.1,0.3,0.1,0.5C13.4,7.4,13.4,7.5,13.4,7.6z"/>
		<path class="st2" d="M7,13.6c0.2-0.8,0.3-1.5,0.5-2.3c-0.3,0-0.6,0-0.9,0c0-0.1,0-0.1,0.1-0.2C7,10.3,7.3,9.4,7.6,8.6
			c0-0.1,0.1-0.1,0.1-0.1c0.4,0,0.8,0,1.2,0c-0.3,0.7-0.7,1.3-1,2c0.3,0,0.7,0,1,0C8.3,11.5,7.6,12.6,7,13.6C7,13.6,7,13.6,7,13.6z"
			/>
	</g>
</g>
</svg>
