<?xml version="1.0" encoding="utf-8"?>
<!-- Generator: Adobe Illustrator 24.0.2, SVG Export Plug-In . SVG Version: 6.00 Build 0)  -->
<svg version="1.1" id="Layer_1" xmlns="http://www.w3.org/2000/svg" xmlns:xlink="http://www.w3.org/1999/xlink" x="0px" y="0px"
	 viewBox="0 0 16 16" width="16px" height="16px" style="enable-background:new 0 0 16 16;" xml:space="preserve">
<style type="text/css">
	.st0{fill:#FFFFFF;stroke:#0368FF;stroke-width:0.5;stroke-miterlimit:10;}
	.st1{fill:#0368FF;}
</style>
<circle class="st0" cx="8" cy="8" r="7.6"/>
<path class="st1" d="M4.8,9.4C4.5,9.3,4.2,9.3,3.9,9.2C3.6,9.2,3.5,9,3.6,8.8c0-0.3,0.2-0.4,0.4-0.3c0.5,0.1,1.1,0.2,1.6,0.3
	c0.1,0,0.2,0,0.2,0C6,8.7,6.2,8.6,6.3,8.5c0,0,0.1-0.1,0-0.1c-0.1-0.3-0.1-0.6,0-0.9C6.2,7.4,6,7.3,5.8,7.2H5.7
	C5.1,7.3,4.6,7.5,4,7.6c-0.2,0.1-0.4,0-0.5-0.3c0-0.3,0.1-0.4,0.4-0.5s0.6-0.1,0.9-0.2c-0.1,0-0.1-0.1-0.1-0.1C4.3,6.4,4,6.2,3.7,6
	C3.5,5.9,3.4,5.7,3.5,5.5S3.8,5.2,4,5.4C4.4,5.6,4.7,5.8,5.1,6l0,0c0,0,0-0.1-0.1-0.1c0-0.3,0-0.6-0.1-0.8c-0.1-0.3,0-0.5,0.2-0.5
	c0.2-0.1,0.4,0,0.5,0.3c0.2,0.5,0.4,1,0.5,1.6c0,0.1,0.1,0.2,0.2,0.2c0.1,0.1,0.3,0.2,0.4,0.2C7,6.6,7.3,6.5,7.6,6.3
	c0-0.2,0-0.4,0-0.6L7.5,5.6C7.1,5.2,6.8,4.8,6.4,4.4C6.2,4.2,6.2,4,6.4,3.9c0.2-0.2,0.4-0.2,0.6,0c0.2,0.2,0.4,0.4,0.6,0.7
	c0-0.3,0-0.6,0-1c0-0.1,0-0.2,0-0.3C7.6,3,7.7,2.9,8,2.9c0.2,0,0.4,0.1,0.4,0.4c0,0.4,0,0.8,0,1.2v0.1C8.6,4.3,8.8,4.1,9,3.8
	c0.1-0.1,0.3-0.2,0.4-0.1c0.2,0.1,0.3,0.2,0.3,0.4c0,0.1-0.1,0.2-0.1,0.3C9.2,4.8,8.8,5.2,8.4,5.7c0,0-0.1,0.1-0.1,0.2
	c0,0.2,0,0.3,0,0.5c0,0.1,0,0.1,0.1,0.1c0.4,0,0.6,0.1,0.8,0.3c0.1,0.1,0.1,0.1,0.2,0C9.7,6.7,9.9,6.5,10,6.1s0.3-0.8,0.4-1.3
	c0.1-0.2,0.3-0.3,0.5-0.3c0.2,0.1,0.3,0.3,0.3,0.5c-0.2,0.4-0.3,0.7-0.4,1c0.1-0.1,0.3-0.1,0.4-0.2c0.2-0.1,0.5-0.3,0.7-0.4
	s0.4-0.1,0.5,0.1s0.1,0.4-0.1,0.5c-0.3,0.2-0.6,0.4-1,0.6c0,0-0.1,0-0.1,0.1c0.3,0.1,0.6,0.1,0.9,0.2c0.3,0.1,0.4,0.2,0.3,0.5
	c-0.1,0.2-0.2,0.4-0.5,0.3c-0.5-0.1-1.1-0.2-1.6-0.3c-0.1,0-0.2,0-0.3,0c0,0-0.2,0.1-0.3,0.1c0,0-0.1,0.1,0,0.1
	c0.1,0.3,0.1,0.6,0,0.9c0.2,0.1,0.3,0.2,0.5,0.3h0.1c0.6-0.1,1.1-0.2,1.7-0.4c0.3-0.1,0.4,0.1,0.5,0.3s-0.1,0.4-0.3,0.5
	c-0.3,0.1-0.5,0.1-0.8,0.2c0,0-0.1,0-0.2,0c0.2,0.1,0.3,0.2,0.4,0.2c0.2,0.1,0.5,0.3,0.7,0.4c0.2,0.1,0.2,0.3,0.1,0.5
	c-0.1,0.2-0.3,0.2-0.5,0.1c-0.3-0.2-0.7-0.4-1-0.6c0,0-0.1,0-0.1-0.1c0.1,0.2,0.2,0.5,0.2,0.7c0,0.1,0,0.1,0.1,0.2
	c0.1,0.2,0,0.4-0.2,0.5s-0.4,0-0.5-0.3c-0.2-0.5-0.3-1-0.5-1.6c0-0.1-0.1-0.2-0.2-0.2c-0.2,0.2-0.3,0.1-0.5,0C9,9.5,8.8,9.6,8.5,9.7
	v0.1c0,0.1,0,0.3,0,0.4c0,0.1,0,0.1,0.1,0.2c0.4,0.4,0.7,0.8,1.1,1.2c0.2,0.2,0.2,0.4,0,0.6c-0.2,0.2-0.4,0.2-0.6,0
	c-0.2-0.2-0.4-0.4-0.6-0.7c0,0.1,0,0.1,0,0.1c0,0.4,0,0.7,0,1.1c0,0.3-0.1,0.4-0.4,0.4c-0.2,0-0.4-0.1-0.4-0.4c0-0.4,0-0.8,0-1.2
	v-0.1c-0.2,0.2-0.4,0.5-0.6,0.7c-0.2,0.3-0.5,0.2-0.7-0.1c-0.1-0.1,0-0.3,0.1-0.4c0.4-0.4,0.8-0.9,1.2-1.3l0.1-0.1
	c0-0.2,0-0.3,0-0.5c0,0,0-0.1-0.1-0.1C7.3,9.6,7,9.5,6.8,9.2H6.7C6.5,9.3,6.4,9.4,6.2,9.5L6.1,9.6c-0.2,0.6-0.4,1.1-0.6,1.7
	c-0.1,0.2-0.3,0.3-0.5,0.3c-0.2-0.1-0.3-0.3-0.2-0.5c0.1-0.3,0.2-0.6,0.3-0.9H5c-0.3,0.2-0.7,0.4-1,0.6c-0.2,0.1-0.4,0.1-0.5-0.1
	c-0.1-0.2-0.1-0.4,0.2-0.5C4,9.8,4.4,9.6,4.8,9.4z M7.5,8.8C7.9,9.1,8.6,9,8.8,8.5c0.3-0.4,0.1-1-0.3-1.3C8,6.9,7.4,7.1,7.2,7.5
	C6.9,8,7,8.6,7.5,8.8z"/>
</svg>
