<?xml version="1.0" encoding="utf-8"?>
<!-- Generator: Adobe Illustrator 24.0.2, SVG Export Plug-In . SVG Version: 6.00 Build 0)  -->
<svg version="1.1" baseProfile="basic" id="Layer_1"
	 xmlns="http://www.w3.org/2000/svg" xmlns:xlink="http://www.w3.org/1999/xlink" x="0px" y="0px" width="16px" height="22px" viewBox="0 0 16 22"
	 xml:space="preserve">
<style type="text/css">
	.st0{fill:#113B6F;}
	.st1{fill:#FFFFFF;}
	.st2{fill:#4B4038;}
</style>
<path class="st0" d="M7.3,21c-5.8-8.5-6.9-9.4-6.9-12.6c0-4.3,3.4-7.8,7.7-7.8s7.7,3.5,7.7,7.8c0,3.1-1.1,4-6.9,12.6
	C8.5,21.6,7.7,21.6,7.3,21L7.3,21z"/>
<circle class="st1" cx="8.1" cy="8.4" r="6.7"/>
<path class="st2" d="M4.2,3.8h7.7v7.1h-0.5v1.4c0,0,0,0.2-0.2,0.3H9.9c0,0-0.1,0-0.2-0.2v-0.9H6.4v0.8c0,0,0,0.3-0.3,0.3H4.9
	c0,0-0.1,0-0.2-0.2V11H4.2V3.8z"/>
<path class="st1" d="M5.2,8.2v-2c0,0,0-0.2,0.2-0.2h5c0,0,0.2,0,0.2,0.2v2H5.2z"/>
<circle class="st1" cx="5.8" cy="9.8" r="0.5"/>
<circle class="st1" cx="10.2" cy="9.8" r="0.5"/>
</svg>
