<?xml version="1.0" encoding="utf-8"?>
<!-- Generator: Adobe Illustrator 24.0.2, SVG Export Plug-In . SVG Version: 6.00 Build 0)  -->
<svg version="1.1" baseProfile="basic" id="Layer_1"
	 xmlns="http://www.w3.org/2000/svg" xmlns:xlink="http://www.w3.org/1999/xlink" x="0px" y="0px" width="16px" height="16px" viewBox="0 0 16 16"
	 xml:space="preserve">
<style type="text/css">
	.st0{fill:#24A0C6;}
	.st1{opacity:0.3;}
	.st2{clip-path:url(#SVGID_2_);fill:#2B5860;}
	.st3{clip-path:url(#SVGID_4_);fill:#2B5860;}
	.st4{fill:#E0E5E8;}
	.st5{fill:#DFE4E8;}
	.st6{fill:#DEE4E7;}
	.st7{fill:#DDE3E6;}
	.st8{fill:#DBE2E6;}
	.st9{fill:#DAE1E5;}
	.st10{fill:#D9E1E4;}
	.st11{fill:#D8E0E4;}
	.st12{fill:#D7DFE3;}
	.st13{fill:#D6DEE2;}
	.st14{fill:#D5DEE2;}
	.st15{fill:#D4DDE1;}
	.st16{fill:#D3DCE0;}
	.st17{fill:#D2DBE0;}
	.st18{fill:#D1DBDF;}
	.st19{fill:#D0DADE;}
	.st20{fill:#CFD9DE;}
	.st21{fill:#CED8DD;}
	.st22{fill:#CDD8DC;}
	.st23{fill:#CCD7DC;}
	.st24{fill:#CBD6DB;}
	.st25{fill:#D6DFE3;}
	.st26{fill:#D9E1E5;}
	.st27{fill:#DAE2E5;}
	.st28{fill:#DCE3E7;}
	.st29{fill:#DDE4E7;}
	.st30{fill:#DEE5E8;}
	.st31{fill:#DFE6E9;}
	.st32{fill:#E1E6E9;}
	.st33{fill:#E2E7EA;}
	.st34{fill:#E3E8EB;}
	.st35{fill:#E4E9EB;}
	.st36{fill:#E5EAEC;}
	.st37{fill:#E6EAED;}
	.st38{fill:#E7EBED;}
	.st39{fill:#E8ECEE;}
	.st40{fill:#E9EDEF;}
	.st41{fill:#EAEDEF;}
	.st42{fill:#EBEEF0;}
	.st43{fill:#ECEFF1;}
	.st44{fill:#EDF0F2;}
	.st45{fill:#EEF1F2;}
	.st46{fill:#EFF1F3;}
	.st47{fill:#F0F2F4;}
	.st48{fill:#F1F3F4;}
	.st49{fill:#F2F4F5;}
	.st50{fill:#F3F4F6;}
	.st51{fill:#F4F5F6;}
	.st52{fill:#F5F6F7;}
	.st53{fill:#3D3D3D;}
	.st54{fill:#515252;}
</style>
<circle class="st0" cx="8" cy="8" r="7.6"/>
<g>
	<g class="st1">
		<g>
			<defs>
				<rect id="SVGID_1_" x="8.5" y="12.4" width="2.7" height="0.5"/>
			</defs>
			<clipPath id="SVGID_2_">
				<use xlink:href="#SVGID_1_"  style="overflow:visible;"/>
			</clipPath>
			<path class="st2" d="M11.2,12.6c0,0.1-0.6,0.3-1.3,0.3c-0.7,0-1.3-0.1-1.3-0.3c0-0.1,0.6-0.3,1.3-0.3
				C10.6,12.4,11.2,12.5,11.2,12.6"/>
		</g>
	</g>
	<g class="st1">
		<g>
			<defs>
				<rect id="SVGID_3_" x="4.1" y="12.4" width="2.7" height="0.5"/>
			</defs>
			<clipPath id="SVGID_4_">
				<use xlink:href="#SVGID_3_"  style="overflow:visible;"/>
			</clipPath>
			<path class="st3" d="M6.7,12.6c0,0.1-0.6,0.3-1.3,0.3c-0.7,0-1.3-0.1-1.3-0.3c0-0.1,0.6-0.3,1.3-0.3C6.1,12.4,6.7,12.5,6.7,12.6"
				/>
		</g>
	</g>
	<g>
		<path class="st4" d="M3.6,10.5c0.5,0.3,1,0.5,1.6,0.6C4.6,10.9,4.1,10.7,3.6,10.5z"/>
		<path class="st5" d="M5.9,11.2c-1-0.2-2-0.6-2.8-1c0.2,0.1,0.3,0.2,0.5,0.3c0.5,0.2,1,0.4,1.6,0.6C5.4,11.1,5.7,11.2,5.9,11.2z"/>
		<path class="st6" d="M6.6,11.3C5.2,11,3.8,10.5,2.7,9.9C2.8,10,3,10.1,3.1,10.2c0.8,0.4,1.8,0.8,2.8,1C6.1,11.2,6.4,11.3,6.6,11.3
			z"/>
		<path class="st7" d="M7.2,11.3c-1.8-0.2-3.4-0.8-4.7-1.6c0.1,0.1,0.1,0.1,0.2,0.2c1.1,0.7,2.4,1.1,3.9,1.4
			C6.8,11.3,7,11.3,7.2,11.3z"/>
		<path class="st8" d="M7.5,11.3c0,0,0.1,0,0.1,0c0,0,0.1,0,0.1,0c0,0,0,0,0.1,0c-2.1-0.2-4-0.8-5.5-1.8c0.1,0.1,0.1,0.2,0.2,0.2
			c1.3,0.8,2.9,1.4,4.7,1.6C7.3,11.3,7.4,11.3,7.5,11.3z"/>
		<path class="st9" d="M7.9,11.3c0.1,0,0.1,0,0.2,0c0.2,0,0.5,0,0.7,0c-2.6,0-4.9-0.8-6.6-2c0,0,0,0,0,0c0.1,0.1,0.1,0.1,0.2,0.2
			C3.8,10.5,5.7,11.1,7.9,11.3C7.9,11.3,7.9,11.3,7.9,11.3z"/>
		<path class="st10" d="M9.6,11.2c-0.2,0-0.4,0-0.7,0c-2.6,0-5-0.8-6.8-2.1c0,0,0,0.1,0,0.1c1.7,1.2,4,2,6.6,2
			C9.1,11.3,9.3,11.2,9.6,11.2z"/>
		<path class="st11" d="M9.6,11.2c0.1,0,0.3-0.1,0.4-0.1c-0.4,0-0.7,0-1.1,0c-2.6,0-5-0.8-6.8-2.1c0,0,0,0.1,0,0.1
			c1.7,1.3,4.1,2.1,6.8,2.1C9.1,11.2,9.3,11.2,9.6,11.2z"/>
		<path class="st12" d="M10,11.1c0.1,0,0.2-0.1,0.4-0.1c-0.5,0.1-1,0.1-1.4,0.1c-2.6,0-5-0.8-6.7-2.1c0,0,0,0.1,0,0.1
			c1.7,1.3,4.1,2.1,6.8,2.1C9.3,11.2,9.6,11.1,10,11.1z"/>
		<path class="st13" d="M10.3,11C10.4,11,10.4,11,10.3,11c0.1,0,0.2-0.1,0.2-0.1C10,11,9.5,11,8.9,11c-2.6,0-5-0.8-6.7-2.1
			c0,0,0,0,0,0c0,0,0,0,0,0c1.7,1.3,4.1,2.1,6.7,2.1C9.4,11.1,9.9,11.1,10.3,11z"/>
		<path class="st14" d="M10.6,10.9c0.1,0,0.1-0.1,0.2-0.1C10.2,10.9,9.5,11,8.9,11c-2.6,0-5-0.8-6.7-2.1c0,0,0,0-0.1,0.1
			C3.9,10.2,6.3,11,8.9,11C9.5,11,10,11,10.6,10.9z"/>
		<path class="st15" d="M10.8,10.8c0.1,0,0.1-0.1,0.2-0.1c-0.7,0.1-1.4,0.2-2.1,0.2c-2.6,0-4.9-0.8-6.6-2.1c0,0,0,0-0.1,0
			c1.7,1.3,4,2.1,6.7,2.1C9.5,11,10.2,10.9,10.8,10.8z"/>
		<path class="st16" d="M11,10.7c0.1,0,0.1-0.1,0.2-0.1c-0.7,0.1-1.5,0.2-2.2,0.2c-2.5,0-4.8-0.8-6.5-2c0,0-0.1,0-0.1,0
			c1.7,1.3,4,2.1,6.6,2.1C9.6,10.9,10.3,10.8,11,10.7z"/>
		<path class="st17" d="M11.1,10.6c0.1,0,0.1-0.1,0.2-0.1c-0.8,0.2-1.6,0.2-2.4,0.2c-2.5,0-4.8-0.8-6.4-2c0,0,0,0-0.1,0c0,0,0,0,0,0
			c1.6,1.2,3.9,2,6.5,2C9.7,10.8,10.4,10.8,11.1,10.6z"/>
		<path class="st18" d="M11.3,10.5c0,0,0.1-0.1,0.1-0.1c-0.8,0.2-1.7,0.3-2.5,0.3c-2.5,0-4.7-0.8-6.3-1.9c0,0-0.1,0-0.1,0
			c1.6,1.2,3.9,2,6.4,2C9.7,10.8,10.5,10.7,11.3,10.5z"/>
		<path class="st19" d="M11.4,10.4c0,0,0.1-0.1,0.1-0.1c-0.8,0.2-1.7,0.3-2.7,0.3c-2.4,0-4.6-0.7-6.2-1.9c0,0-0.1,0-0.1,0
			c1.6,1.2,3.8,1.9,6.3,1.9C9.8,10.7,10.6,10.6,11.4,10.4z"/>
		<path class="st20" d="M11.6,10.4c0,0,0.1-0.1,0.1-0.1c-0.9,0.2-1.8,0.3-2.8,0.3c-2.4,0-4.5-0.7-6.1-1.9c0,0-0.1,0-0.1,0
			c1.6,1.2,3.8,1.9,6.2,1.9C9.8,10.6,10.7,10.5,11.6,10.4z"/>
		<path class="st21" d="M11.7,10.2c0,0,0.1-0.1,0.1-0.1c-0.9,0.2-1.9,0.4-2.9,0.4c-2.3,0-4.4-0.7-6-1.8c0,0-0.1,0-0.1,0
			c1.6,1.1,3.7,1.8,6.1,1.9C9.9,10.6,10.8,10.5,11.7,10.2z"/>
		<path class="st22" d="M11.8,10.1c0,0,0.1-0.1,0.1-0.1c-0.9,0.3-2,0.4-3,0.4c-2.3,0-4.4-0.7-5.9-1.8c0,0-0.1,0-0.1,0
			c1.6,1.1,3.7,1.8,6,1.8C9.9,10.5,10.9,10.4,11.8,10.1z"/>
		<path class="st23" d="M11.9,10C12,10,12,10,12,10c-1,0.3-2,0.4-3.1,0.4c-2.3,0-4.3-0.7-5.8-1.8c0,0,0,0-0.1,0
			c1.5,1.1,3.6,1.8,5.9,1.8C10,10.4,11,10.3,11.9,10z"/>
		<path class="st24" d="M12,10C12.1,9.9,12.1,9.9,12,10c-0.9,0.2-2,0.4-3.1,0.4c-2.2,0-4.3-0.7-5.8-1.7c0,0,0,0-0.1,0
			c1.5,1.1,3.6,1.7,5.8,1.8C10,10.4,11.1,10.2,12,10z"/>
		<path class="st24" d="M12.1,9.9c0.1-0.1,0.1-0.1,0.2-0.2c-1,0.3-2.2,0.5-3.4,0.5c-2.2,0-4.2-0.7-5.7-1.7c0,0-0.1,0.1-0.1,0.1
			c1.5,1.1,3.5,1.7,5.8,1.7C10,10.3,11.1,10.2,12.1,9.9z"/>
		<path class="st23" d="M12.3,9.6c0.1-0.1,0.1-0.1,0.2-0.2C11.4,9.8,10.2,10,8.9,10c-2.2,0-4.1-0.7-5.6-1.7c0,0-0.1,0.1-0.1,0.1
			c1.5,1,3.5,1.7,5.7,1.7C10.1,10.2,11.3,10,12.3,9.6z"/>
		<path class="st22" d="M12.5,9.4c0.1-0.1,0.1-0.1,0.1-0.2c-1.1,0.4-2.4,0.7-3.8,0.7c-2.1,0-4.1-0.7-5.5-1.7c0,0-0.1,0.1-0.1,0.1
			c1.4,1,3.4,1.7,5.6,1.7C10.2,10,11.4,9.8,12.5,9.4z"/>
		<path class="st21" d="M12.7,9.2c0.1-0.1,0.1-0.1,0.1-0.2c-1.1,0.5-2.5,0.8-3.9,0.8c-2.1,0-4.1-0.7-5.4-1.7c0,0.1,0,0.1-0.1,0.2
			c1.4,1,3.3,1.7,5.5,1.7C10.3,9.9,11.5,9.7,12.7,9.2z"/>
		<path class="st20" d="M12.8,9c0-0.1,0.1-0.1,0.1-0.2c-1.2,0.5-2.5,0.8-4,0.8c-2.1,0-4-0.7-5.4-1.7c0,0.1,0,0.1-0.1,0.2
			c1.4,1,3.3,1.7,5.4,1.7C10.3,9.8,11.7,9.5,12.8,9z"/>
		<path class="st19" d="M12.9,8.8C13,8.7,13,8.7,13,8.6c-1.2,0.6-2.6,0.9-4.1,0.9c-2.1,0-4-0.7-5.4-1.8c0,0.1,0,0.1,0,0.2
			C4.9,9,6.8,9.6,8.9,9.6C10.4,9.6,11.8,9.3,12.9,8.8z"/>
		<path class="st18" d="M13,8.6c0-0.1,0.1-0.1,0.1-0.2c-1.2,0.6-2.6,1-4.2,1c-2.1,0-4-0.7-5.3-1.8c0,0.1,0,0.1,0,0.2
			c1.3,1.1,3.2,1.8,5.4,1.8C10.4,9.5,11.8,9.2,13,8.6z"/>
		<path class="st17" d="M13.1,8.4c0,0,0-0.1,0-0.1c0,0,0-0.1,0-0.1C12,8.8,10.5,9.2,8.9,9.2c-2.1,0-4-0.7-5.3-1.9c0,0.1,0,0.1,0,0.2
			c1.3,1.1,3.2,1.8,5.3,1.8C10.5,9.4,11.9,9,13.1,8.4z"/>
		<path class="st16" d="M13.2,8.2c0-0.1,0-0.1,0.1-0.2c-1.2,0.7-2.7,1.1-4.3,1.1c-2.1,0-4-0.8-5.3-1.9c0,0.1,0,0.1,0,0.2
			c1.3,1.1,3.2,1.8,5.3,1.9C10.5,9.2,12,8.8,13.2,8.2z"/>
		<path class="st15" d="M13.2,8c0-0.1,0-0.1,0.1-0.2C12.1,8.5,10.6,9,8.9,9c-2.2,0-4.1-0.8-5.3-2c0,0.1,0,0.1,0,0.2
			c1.2,1.2,3.1,1.9,5.3,1.9C10.6,9.1,12.1,8.7,13.2,8z"/>
		<path class="st14" d="M13.3,7.7c0-0.1,0-0.1,0-0.2c-1.1,0.8-2.7,1.3-4.4,1.3C6.7,8.8,4.8,8,3.7,6.7c0,0,0,0,0,0c0,0.1,0,0.1,0,0.2
			c1.2,1.2,3.1,2,5.3,2C10.6,9,12.1,8.5,13.3,7.7z"/>
		<path class="st25" d="M13.3,7.5c0-0.1,0-0.1,0-0.2c-1.1,0.9-2.7,1.4-4.5,1.4c-2.2,0-4.1-0.9-5.2-2.2c0,0.1,0,0.1,0,0.2
			C4.8,8,6.7,8.8,8.9,8.8C10.6,8.8,12.2,8.3,13.3,7.5z"/>
		<path class="st12" d="M8.9,8.7c1.7,0,3.3-0.5,4.5-1.4c0-0.1,0-0.1,0-0.2C12.3,8,10.7,8.6,8.9,8.5c-2.2,0-4.2-0.9-5.2-2.3
			c0,0.1,0,0.2,0,0.2C4.8,7.8,6.7,8.7,8.9,8.7z"/>
		<path class="st11" d="M8.9,8.5c1.8,0,3.4-0.5,4.5-1.4c0-0.1,0-0.1,0-0.2c-1.1,0.9-2.7,1.5-4.5,1.5c-2.3,0-4.2-1-5.2-2.4
			c0,0.1,0,0.2,0,0.3C4.7,7.6,6.7,8.5,8.9,8.5z"/>
		<path class="st26" d="M8.9,8.4c1.8,0,3.4-0.6,4.5-1.5c0-0.1,0-0.1,0-0.2c-1,1-2.6,1.6-4.5,1.6c-2.3,0-4.3-1-5.1-2.5
			c0,0,0,0.1,0,0.1c0,0,0,0.1,0,0.1C4.7,7.4,6.6,8.4,8.9,8.4z"/>
		<path class="st27" d="M8.9,8.3c1.8,0,3.4-0.6,4.5-1.6c0-0.1,0-0.1,0-0.2c-1,1-2.6,1.7-4.4,1.7c-2.3,0-4.3-1.1-5-2.6
			c0,0.1-0.1,0.2-0.1,0.2C4.7,7.2,6.6,8.3,8.9,8.3z"/>
		<path class="st8" d="M8.9,8.1c1.8,0,3.5-0.7,4.4-1.7c0-0.1,0-0.2,0-0.2C12.4,7.3,10.8,8,8.9,8C6.6,8,4.6,6.8,4,5.3
			c0,0.1-0.1,0.2-0.1,0.3C4.6,7,6.6,8.1,8.9,8.1z"/>
		<path class="st28" d="M8.9,8c1.9,0,3.5-0.7,4.4-1.8c0-0.1,0-0.1,0-0.2c-0.9,1.1-2.5,1.9-4.4,1.8C6.6,7.8,4.6,6.6,4.1,5
			C4,5.1,4,5.2,4,5.3C4.6,6.8,6.6,8,8.9,8z"/>
		<path class="st29" d="M8.9,7.9c1.9,0,3.5-0.7,4.4-1.8c0-0.1,0-0.1,0-0.2c-0.8,1.2-2.4,1.9-4.3,1.9c-2.4,0-4.3-1.3-4.8-2.9
			C4.1,4.9,4.1,5,4.1,5C4.6,6.6,6.6,7.8,8.9,7.9z"/>
		<path class="st30" d="M8.9,7.7c1.9,0,3.5-0.8,4.3-1.9c0-0.1,0-0.1-0.1-0.2c-0.7,1.2-2.4,2-4.3,2c-2.4,0-4.3-1.3-4.6-3
			C4.3,4.7,4.2,4.7,4.2,4.8C4.6,6.5,6.6,7.7,8.9,7.7z"/>
		<path class="st31" d="M8.9,7.6c1.9,0,3.5-0.8,4.3-2c0-0.1,0-0.1-0.1-0.2c-0.7,1.2-2.3,2.1-4.2,2.1c-2.4,0-4.3-1.4-4.4-3.1
			C4.4,4.4,4.4,4.5,4.3,4.6C4.6,6.3,6.5,7.6,8.9,7.6z"/>
		<path class="st32" d="M8.9,7.5c1.9,0,3.5-0.9,4.2-2.1c0-0.1-0.1-0.1-0.1-0.2c-0.6,1.3-2.2,2.2-4.1,2.2c-2.4,0-4.3-1.4-4.3-3.2
			C4.6,4.2,4.5,4.3,4.5,4.4C4.6,6.1,6.5,7.4,8.9,7.5z"/>
		<path class="st33" d="M8.9,7.3c1.9,0,3.5-0.9,4.1-2.2c0-0.1-0.1-0.1-0.1-0.2c-0.5,1.3-2.1,2.2-4,2.2c-2.3,0-4.1-1.4-4.1-3
			c0-0.1,0-0.1,0-0.2C4.8,4,4.7,4.1,4.6,4.2C4.6,5.9,6.5,7.3,8.9,7.3z"/>
		<path class="st34" d="M8.9,7.2c1.9,0,3.5-0.9,4-2.2c0-0.1-0.1-0.1-0.1-0.2c-0.4,1.3-2,2.3-3.9,2.3C6.7,7,5,5.7,5,4.1
			C5,4,5,3.9,5.1,3.7C5,3.8,4.9,3.9,4.8,3.9c0,0.1,0,0.1,0,0.2C4.8,5.8,6.6,7.2,8.9,7.2z"/>
		<path class="st35" d="M8.9,7c1.9,0,3.5-1,3.9-2.3c0-0.1-0.1-0.2-0.2-0.2c-0.2,1.4-1.8,2.4-3.7,2.4c-2.1,0-3.7-1.3-3.7-2.8
			c0-0.2,0-0.4,0.1-0.6c0,0,0,0,0,0C5.2,3.6,5.1,3.7,5.1,3.7C5,3.9,5,4,5,4.1C5,5.7,6.7,7,8.9,7z"/>
		<path class="st36" d="M8.9,6.9c1.9,0,3.5-1,3.7-2.4c0,0,0-0.1-0.1-0.1c0,0-0.1-0.1-0.1-0.1c-0.1,1.4-1.7,2.5-3.6,2.5
			c-2,0-3.6-1.2-3.6-2.6c0-0.3,0.1-0.6,0.2-0.8C5.5,3.4,5.4,3.4,5.3,3.5C5.2,3.7,5.2,3.9,5.2,4.1C5.2,5.7,6.8,6.9,8.9,6.9z"/>
		<path class="st37" d="M8.9,6.8c1.9,0,3.5-1.1,3.6-2.5c-0.1-0.1-0.1-0.1-0.2-0.2c0,0,0,0.1,0,0.1c0,1.4-1.5,2.5-3.4,2.5
			c-1.9,0-3.4-1.1-3.4-2.5c0-0.4,0.1-0.7,0.3-1C5.8,3.2,5.7,3.3,5.6,3.3C5.4,3.6,5.4,3.8,5.4,4.1C5.4,5.6,6.9,6.8,8.9,6.8z"/>
		<path class="st38" d="M8.9,6.6c1.9,0,3.4-1.1,3.4-2.5c0,0,0-0.1,0-0.1c-0.1-0.1-0.1-0.2-0.2-0.2c0,0.1,0,0.2,0,0.3
			c0,1.3-1.4,2.3-3.2,2.3c-1.8,0-3.2-1.1-3.2-2.4c0-0.4,0.2-0.8,0.5-1.2C6.1,3,6,3.1,5.9,3.1c-0.2,0.3-0.3,0.7-0.3,1
			C5.5,5.5,7.1,6.6,8.9,6.6z"/>
		<path class="st39" d="M8.9,6.5c1.8,0,3.2-1,3.2-2.3c0-0.1,0-0.2,0-0.3c-0.1-0.1-0.2-0.2-0.2-0.2c0.1,0.2,0.1,0.4,0.1,0.6
			c0,1.2-1.4,2.2-3,2.2c-1.7,0-3-1-3-2.2c0-0.5,0.3-1,0.7-1.4C6.5,2.8,6.3,2.9,6.2,3C5.9,3.3,5.7,3.7,5.7,4.1
			C5.7,5.4,7.2,6.5,8.9,6.5z"/>
		<path class="st40" d="M5.9,4.1c0,1.2,1.3,2.2,3,2.2c1.7,0,3-1,3-2.2c0-0.2,0-0.4-0.1-0.6c-0.1-0.1-0.2-0.1-0.3-0.2
			c0.1,0.2,0.2,0.5,0.2,0.8c0,1.1-1.3,2.1-2.8,2.1c-1.6,0-2.8-0.9-2.8-2.1c0-0.6,0.4-1.2,1-1.5c-0.2,0-0.3,0.1-0.5,0.2
			C6.2,3.1,5.9,3.6,5.9,4.1z"/>
		<path class="st41" d="M6.1,4.1c0,1.1,1.3,2.1,2.8,2.1c1.6,0,2.8-0.9,2.8-2.1c0-0.3-0.1-0.5-0.2-0.8c-0.1-0.1-0.3-0.2-0.4-0.3
			c0.3,0.3,0.4,0.7,0.4,1c0,1.1-1.2,1.9-2.6,1.9c-1.5,0-2.6-0.9-2.6-2c0-0.7,0.5-1.3,1.3-1.7c-0.2,0-0.4,0.1-0.6,0.1
			C6.5,3,6.1,3.5,6.1,4.1z"/>
		<path class="st42" d="M6.3,4.1c0,1.1,1.2,1.9,2.6,2c1.5,0,2.6-0.9,2.6-1.9c0-0.4-0.2-0.7-0.4-1C11,3,10.8,2.9,10.6,2.8
			c0.5,0.3,0.8,0.8,0.8,1.3c0,1-1.1,1.8-2.5,1.8S6.5,5.1,6.5,4.1c0-0.9,0.8-1.6,2-1.7c-0.2,0-0.4,0-0.6,0c-0.1,0-0.1,0-0.2,0
			C6.8,2.8,6.3,3.4,6.3,4.1z"/>
		<path class="st43" d="M6.5,4.1c0,1,1.1,1.8,2.4,1.8s2.5-0.8,2.5-1.8c0-0.5-0.3-1-0.8-1.3C9.9,2.5,9.2,2.4,8.5,2.4c0,0-0.1,0-0.1,0
			C7.3,2.6,6.5,3.3,6.5,4.1z M8.9,2.5c1.3,0,2.3,0.8,2.3,1.7c0,0.9-1,1.7-2.3,1.6c-1.3,0-2.3-0.8-2.3-1.7C6.7,3.2,7.7,2.5,8.9,2.5z"
			/>
		<path class="st44" d="M8.9,5.8c1.3,0,2.3-0.7,2.3-1.6c0-0.9-1-1.7-2.3-1.7c-1.3,0-2.3,0.7-2.3,1.7C6.7,5.1,7.7,5.8,8.9,5.8z
			 M8.9,2.6c1.1,0,2.1,0.7,2.1,1.5c0,0.8-0.9,1.5-2.1,1.5S6.8,5,6.9,4.1C6.9,3.3,7.8,2.6,8.9,2.6z"/>
		<path class="st45" d="M8.9,5.7C10.1,5.7,11,5,11,4.2c0-0.8-0.9-1.5-2.1-1.5S6.9,3.3,6.9,4.1C6.8,5,7.8,5.7,8.9,5.7z M8.9,2.8
			c1,0,1.9,0.6,1.9,1.4S10,5.6,8.9,5.5S7,4.9,7,4.1C7,3.4,7.9,2.8,8.9,2.8z"/>
		<path class="st46" d="M8.9,5.5c1,0,1.9-0.6,1.9-1.4S10,2.8,8.9,2.8C7.9,2.8,7,3.4,7,4.1C7,4.9,7.9,5.5,8.9,5.5z M8.9,2.9
			c0.9,0,1.7,0.6,1.7,1.3c0,0.7-0.8,1.3-1.7,1.2C8,5.4,7.2,4.8,7.2,4.1C7.2,3.5,8,2.9,8.9,2.9z"/>
		<path class="st47" d="M8.9,5.4c0.9,0,1.7-0.6,1.7-1.2c0-0.7-0.8-1.3-1.7-1.3S7.2,3.5,7.2,4.1C7.2,4.8,8,5.4,8.9,5.4z M8.9,3
			c0.8,0,1.5,0.5,1.5,1.1S9.8,5.3,8.9,5.3c-0.8,0-1.5-0.5-1.5-1.1S8.1,3,8.9,3z"/>
		<path class="st48" d="M8.9,5.3c0.8,0,1.5-0.5,1.5-1.1S9.8,3,8.9,3C8.1,3,7.4,3.5,7.4,4.1S8.1,5.3,8.9,5.3z M8.9,3.2
			c0.7,0,1.3,0.4,1.3,1c0,0.5-0.6,1-1.3,1c-0.7,0-1.3-0.4-1.3-1C7.6,3.6,8.2,3.2,8.9,3.2z"/>
		<path class="st49" d="M8.9,5.1c0.7,0,1.3-0.4,1.3-1c0-0.5-0.6-1-1.3-1c-0.7,0-1.3,0.4-1.3,1C7.6,4.7,8.2,5.1,8.9,5.1z M8.9,3.3
			c0.6,0,1.2,0.4,1.1,0.9C10.1,4.6,9.6,5,8.9,5S7.8,4.6,7.8,4.1S8.3,3.3,8.9,3.3z"/>
		<path class="st50" d="M8.9,5c0.6,0,1.2-0.4,1.2-0.8c0-0.5-0.5-0.8-1.1-0.9c-0.6,0-1.2,0.4-1.2,0.8S8.3,5,8.9,5z M8.9,3.4
			c0.5,0,1,0.3,1,0.7c0,0.4-0.4,0.7-1,0.7c-0.5,0-1-0.3-1-0.7C8,3.8,8.4,3.4,8.9,3.4z"/>
		<path class="st51" d="M8.9,4.9c0.5,0,1-0.3,1-0.7c0-0.4-0.4-0.7-1-0.7c-0.5,0-1,0.3-1,0.7C8,4.5,8.4,4.9,8.9,4.9z M8.9,3.6
			c0.4,0,0.8,0.3,0.8,0.6c0,0.3-0.4,0.6-0.8,0.6c-0.4,0-0.8-0.3-0.8-0.6C8.2,3.8,8.5,3.6,8.9,3.6z"/>
		<path class="st52" d="M8.9,4.7c0.4,0,0.8-0.3,0.8-0.6c0-0.3-0.3-0.6-0.8-0.6c-0.4,0-0.8,0.3-0.8,0.6C8.1,4.5,8.5,4.7,8.9,4.7z
			 M8.9,3.7c0.3,0,0.6,0.2,0.6,0.4c0,0.2-0.3,0.4-0.6,0.4c-0.3,0-0.6-0.2-0.6-0.4C8.3,3.9,8.6,3.7,8.9,3.7z"/>
		<path class="st52" d="M8.9,4.6c0.3,0,0.6-0.2,0.6-0.4c0-0.2-0.3-0.4-0.6-0.4S8.3,3.9,8.3,4.2C8.3,4.4,8.6,4.6,8.9,4.6z M8.9,3.9
			c0.2,0,0.3,0.1,0.3,0.2c0,0.1-0.1,0.2-0.3,0.2c-0.2,0-0.3-0.1-0.3-0.2C8.6,4,8.8,3.9,8.9,3.9z"/>
		<path class="st52" d="M8.9,4.4c0.2,0,0.3-0.1,0.3-0.2c0-0.1-0.1-0.2-0.3-0.2S8.6,4,8.6,4.2C8.6,4.3,8.8,4.4,8.9,4.4z"/>
	</g>
	<path class="st53" d="M8.5,2.7c2.8,0,5.3,2.5,4.3,5.4c-0.4,1.2-1.5,2.1-2.6,2.6C9.6,11,8.7,11,8.1,11c-0.1,0-0.2,0-0.3,0
		c0,0-0.1,0-0.1,0c0,0-0.1,0-0.1,0c-1.6,0-3.8-0.2-5.1-1.9c1.8,0,1.4-2,1.6-3.1c0.3-1.8,2.1-3,3.8-3.2C8.1,2.7,8.3,2.7,8.5,2.7
		 M8.5,2.1c-0.2,0-0.5,0-0.7,0c-1,0.1-2,0.5-2.7,1.2C4.2,4,3.7,4.8,3.5,5.8C3.4,6.1,3.4,6.4,3.4,6.8c0,0.5-0.1,1-0.2,1.3
		C3,8.3,2.9,8.5,2.4,8.5C2.2,8.5,2,8.6,1.9,8.8C1.8,9,1.8,9.3,1.9,9.5c1.5,1.9,3.9,2.2,5.6,2.2c0,0,0.1,0,0.1,0c0,0,0.1,0,0.1,0
		c0,0,0.1,0,0.1,0c0.1,0,0.1,0,0.2,0c0.8,0,1.6,0,2.4-0.3c0.6-0.2,1.3-0.6,1.8-1.1c0.6-0.5,1-1.2,1.2-1.8c0.2-0.7,0.3-1.5,0.2-2.2
		c-0.1-0.7-0.4-1.3-0.8-1.9C12.4,3.6,11.7,3,11,2.7C10.2,2.3,9.4,2.1,8.5,2.1"/>
	<path class="st53" d="M7.7,5.8c0,0.3-0.3,0.6-0.6,0.6c-0.3,0-0.6-0.3-0.6-0.6c0-0.3,0.3-0.6,0.6-0.6C7.4,5.2,7.7,5.5,7.7,5.8"/>
	<path class="st53" d="M10.5,5.8c0,0.3-0.3,0.6-0.6,0.6c-0.3,0-0.6-0.3-0.6-0.6c0-0.3,0.3-0.6,0.6-0.6C10.2,5.2,10.5,5.5,10.5,5.8"
		/>
	<path class="st53" d="M8.5,9c-1,0-1.9-0.7-2.1-1.5c0-0.2,0.1-0.3,0.2-0.4C6.8,7.1,7,7.2,7,7.4c0.1,0.5,0.7,1.1,1.5,1
		c0.9,0,1.4-0.5,1.5-1c0-0.2,0.2-0.3,0.4-0.2c0.2,0,0.3,0.2,0.2,0.4c-0.1,0.4-0.4,0.8-0.7,1C9.6,8.8,9.1,9,8.5,9C8.5,9,8.5,9,8.5,9"
		/>
	<path class="st53" d="M4.2,11.5c0-0.7,0.6-1.2,1.2-1.2c0.7,0,1.2,0.6,1.2,1.2c0,0.7-0.6,1.2-1.2,1.2C4.8,12.8,4.2,12.2,4.2,11.5"/>
	<path class="st54" d="M5.1,11.5c0-0.2,0.2-0.4,0.4-0.4c0.2,0,0.4,0.2,0.4,0.4c0,0.2-0.2,0.4-0.4,0.4C5.3,12,5.1,11.8,5.1,11.5"/>
	<path class="st53" d="M8.5,11.5c0-0.7,0.6-1.2,1.2-1.2c0.7,0,1.2,0.6,1.2,1.2c0,0.7-0.6,1.2-1.2,1.2C9.1,12.8,8.5,12.2,8.5,11.5"/>
	<path class="st54" d="M9.4,11.5c0-0.2,0.2-0.4,0.4-0.4c0.2,0,0.4,0.2,0.4,0.4c0,0.2-0.2,0.4-0.4,0.4C9.5,12,9.4,11.8,9.4,11.5"/>
</g>
</svg>
