<?xml version="1.0" encoding="utf-8"?>
<!-- Generator: Adobe Illustrator 24.0.2, SVG Export Plug-In . SVG Version: 6.00 Build 0)  -->
<svg version="1.1" baseProfile="basic" id="Layer_1"
	 xmlns="http://www.w3.org/2000/svg" xmlns:xlink="http://www.w3.org/1999/xlink" x="0px" y="0px" width="16px" height="22px" viewBox="0 0 16 22"
	 xml:space="preserve">
<style type="text/css">
	.st0{fill:#113B6F;}
	.st1{fill:#FFFFFF;}
	.st2{fill:#0577CE;}
</style>
<path class="st0" d="M7.3,21c-5.8-8.5-6.9-9.4-6.9-12.6c0-4.3,3.4-7.8,7.7-7.8s7.7,3.5,7.7,7.8c0,3.1-1.1,4-6.9,12.6
	C8.5,21.6,7.7,21.6,7.3,21L7.3,21z"/>
<circle class="st1" cx="8.1" cy="8.4" r="6.7"/>
<g>
	<path class="st2" d="M11.7,4.3v0.5H9.8V4.3H11.7z M10.9,5.3H9.8v0.5h1.1V5.3z M9.8,6.8h1.8V6.3H9.8V6.8z M10.9,7.4H9.8v0.5h1.1V7.4
		z M9.8,8.9h1.8V8.4H9.8V8.9z M10.1,11.6c0,1.3-1.1,2.4-2.4,2.4s-2.4-1.1-2.4-2.4c0-0.9,0.5-1.6,1.2-2.1V4.1c0-0.7,0.5-1.2,1.2-1.2
		s1.2,0.5,1.2,1.2v5.4C9.7,9.9,10.1,10.7,10.1,11.6z M9.7,11.6c0-0.7-0.4-1.4-1.1-1.7L8.5,9.8V4.1c0-0.4-0.3-0.7-0.7-0.7
		C7.3,3.3,7,3.6,7,4.1v5.7L6.9,9.8c-0.7,0.3-1.1,1-1.1,1.7c0,1.1,0.9,1.9,1.9,1.9S9.7,12.6,9.7,11.6z M9.3,11.6
		c0,0.8-0.7,1.5-1.5,1.5c-0.8,0-1.5-0.7-1.5-1.5c0-0.7,0.5-1.3,1.1-1.5l0.1,0V7.1H8v2.9l0.1,0C8.8,10.3,9.3,10.9,9.3,11.6z
		 M7.8,10.5c0-0.2-0.2-0.3-0.4-0.2c-0.6,0.1-1,0.6-1,1.2c0,0.2,0.1,0.3,0.3,0.3s0.3-0.1,0.3-0.3c0-0.3,0.2-0.6,0.5-0.6
		C7.7,10.9,7.8,10.7,7.8,10.5z"/>
</g>
</svg>
